<?xml version="1.0" encoding="utf-8"?>
<!-- Generator: Adobe Illustrator 24.1.0, SVG Export Plug-In . SVG Version: 6.00 Build 0)  -->
<svg version="1.1" id="Capa_1" xmlns="http://www.w3.org/2000/svg" xmlns:xlink="http://www.w3.org/1999/xlink" x="0px" y="0px"
	 viewBox="0 0 1920 595" style="enable-background:new 0 0 1920 595;" xml:space="preserve">
<style type="text/css">
	.st0{fill:#044787;}
	.st1{fill:#213546;}
	.st2{fill:#3D4C58;}
</style>
<g>
	<g>
		<g>
			<g>
				<path class="st0" d="M924.3,239.7c-14.1,0-25.6-4.3-34.7-12.9c-9.1-8.6-13.6-20.4-13.6-35.2c0-14.2,4.3-25.9,12.9-35
					c8.6-9.1,20.1-13.7,34.6-13.7c7,0,13.9,1.4,20.5,4.1c6.7,2.8,12.4,6.8,17.1,12l-13.2,11.5c-6.6-6.6-14.7-9.9-24.4-9.9
					c-8,0-14.7,2.8-19.9,8.4c-5.3,5.6-7.9,13.1-7.9,22.5c0,9,2.6,16.4,7.8,22.3c5.2,5.9,12.2,8.8,20.9,8.8c6.8,0,13.2-1.8,19.1-5.5
					v-13.9h-21.2v-16.1h39.5V228c-4.4,3.6-10,6.4-16.7,8.5C938.3,238.7,931.4,239.7,924.3,239.7z"/>
				<path class="st0" d="M924.3,241.9c-14.6,0-26.7-4.6-36.2-13.5c-9.5-9-14.3-21.4-14.3-36.8c0-14.7,4.5-27,13.5-36.5
					c9-9.5,21.2-14.4,36.2-14.4c7.3,0,14.5,1.4,21.4,4.3c6.9,2.9,13,7.1,17.9,12.6l1.5,1.6l-16.4,14.3l-1.4-1.4
					c-6.2-6.2-13.7-9.2-22.9-9.2c-7.4,0-13.5,2.5-18.4,7.7c-4.9,5.2-7.3,12.2-7.3,21.1c0,8.4,2.4,15.4,7.3,20.8
					c4.8,5.4,11.1,8.1,19.3,8.1c6,0,11.7-1.5,16.9-4.5v-10.5H920V185h43.8v44l-0.8,0.7c-4.6,3.7-10.5,6.7-17.4,8.9
					C938.8,240.8,931.6,241.9,924.3,241.9z M923.5,145.1c-13.8,0-24.9,4.4-33,13c-8.2,8.7-12.3,19.9-12.3,33.5
					c0,14.2,4.4,25.5,12.9,33.6c8.6,8.2,19.8,12.3,33.2,12.3c6.9,0,13.6-1,20-3.1c6-1.9,11.1-4.4,15.2-7.5v-37.6h-35.1v11.8h21.2
					v17.3l-1,0.6c-6.2,3.8-13,5.8-20.2,5.8c-9.3,0-16.9-3.2-22.5-9.5c-5.5-6.3-8.4-14.2-8.4-23.7c0-10,2.9-18,8.5-24
					c5.7-6,12.9-9.1,21.5-9.1c9.5,0,17.8,3.1,24.5,9.1l10-8.7c-4.2-4.2-9.1-7.5-14.8-9.8C936.8,146.4,930.2,145.1,923.5,145.1z"/>
			</g>
			<g>
				<path class="st0" d="M993.3,238.8v-94.7h35.9c10.9,0,19.2,2.9,24.7,8.6c5.5,5.7,8.3,13.4,8.3,22.9c0,14.8-6.6,24.3-19.7,28.6
					l23.7,34.7h-22.3l-21.2-32.4h-10.8v32.4H993.3z M1011.8,189.8h13.6c5.6,0,9.9-1.3,12.9-3.9c3-2.6,4.5-6.2,4.5-10.6
					c0-4.4-1.4-8-4.3-10.6c-2.8-2.6-6.9-3.9-12.3-3.9h-14.4V189.8z"/>
				<path class="st0" d="M1070.3,241h-27.6l-21.2-32.4h-7.5V241h-22.9v-99.1h38.1c11.5,0,20.3,3.1,26.3,9.3
					c5.9,6.1,8.9,14.3,8.9,24.4c0,14.7-6.2,24.7-18.5,29.6L1070.3,241z M1045,236.6h17l-23.1-33.7l2.8-0.9
					c12.3-4,18.2-12.6,18.2-26.5c0-8.9-2.6-16.1-7.7-21.4c-5.1-5.3-12.8-7.9-23.1-7.9h-33.7v90.4h14.2v-32.4h14.2L1045,236.6z
					 M1025.4,192h-15.8v-33.4h16.6c5.9,0,10.5,1.5,13.7,4.5c3.3,3,5,7.2,5,12.2c0,5.1-1.8,9.2-5.2,12.2
					C1036.4,190.5,1031.6,192,1025.4,192z M1014,187.7h11.4c5,0,8.9-1.1,11.4-3.4c2.5-2.2,3.7-5.1,3.7-9c0-3.8-1.2-6.8-3.6-9
					c-2.4-2.2-6.1-3.4-10.8-3.4H1014V187.7z"/>
			</g>
			<g>
				<path class="st0" d="M1128.7,240c-11.7,0-20.9-3.6-27.9-10.7c-6.9-7.1-10.4-17-10.4-29.8v-55.5h18.8v54.3c0,7,1.7,12.8,5.1,17.3
					c3.4,4.5,8.2,6.7,14.3,6.7c5.9,0,10.6-2.2,14.3-6.5c3.6-4.3,5.5-10.2,5.5-17.5v-54.3h18.8v55.5c0,12.5-3.4,22.3-10.2,29.6
					C1150.3,236.4,1140.8,240,1128.7,240z"/>
				<path class="st0" d="M1128.7,242.2c-12.2,0-22.1-3.8-29.4-11.3c-7.3-7.5-11-18-11-31.3v-57.7h23.2v56.5c0,6.5,1.6,11.9,4.7,16
					c3,4,7.1,5.9,12.6,5.9c5.2,0,9.4-1.9,12.6-5.7c3.3-3.9,5-9.3,5-16.1v-56.5h23.2v57.7c0,13-3.6,23.4-10.8,31
					C1151.4,238.3,1141.4,242.2,1128.7,242.2z M1092.6,146.3v53.3c0,12.1,3.3,21.6,9.8,28.2c6.5,6.6,15.3,10,26.3,10
					c11.4,0,20.4-3.4,26.8-10.2c6.4-6.8,9.6-16.2,9.6-28.1v-53.3h-14.5v52.1c0,7.9-2,14.3-6,18.9c-4.1,4.8-9.4,7.2-15.9,7.2
					c-6.8,0-12.2-2.6-16.1-7.6c-3.7-4.9-5.6-11.1-5.6-18.6v-52.1H1092.6z"/>
			</g>
			<g>
				<path class="st0" d="M1199.8,238.8v-94.7h35.1c11,0,19.3,2.9,24.7,8.6c5.5,5.7,8.2,13.4,8.2,22.9c0,10.1-3.1,17.8-9.3,23
					c-6.2,5.2-14.7,7.8-25.5,7.8h-14.7v32.4H1199.8z M1218.4,189.8h12.7c5.7,0,10-1.3,12.9-3.9c2.9-2.6,4.4-6.2,4.4-10.6
					c0-4.5-1.4-8.1-4.2-10.7c-2.8-2.6-6.9-3.9-12.2-3.9h-13.6V189.8z"/>
				<path class="st0" d="M1220.5,241h-22.9v-99.1h37.3c11.6,0,20.5,3.1,26.3,9.3c5.8,6.1,8.8,14.3,8.8,24.4
					c0,10.8-3.4,19.1-10.1,24.7c-6.6,5.5-15.6,8.3-26.9,8.3h-12.5V241z M1202,236.6h14.2v-32.4h16.9c10.2,0,18.3-2.5,24.1-7.3
					c5.8-4.8,8.6-11.8,8.6-21.3c0-8.9-2.6-16.1-7.6-21.4c-5-5.3-12.8-7.9-23.2-7.9H1202V236.6z M1231,192h-14.9v-33.4h15.8
					c5.9,0,10.5,1.5,13.7,4.4c3.3,3,4.9,7.1,4.9,12.3c0,5.1-1.7,9.2-5.1,12.2C1242.1,190.5,1237.3,192,1231,192z M1220.5,187.7h10.5
					c5.1,0,9-1.1,11.5-3.4c2.5-2.2,3.7-5.1,3.7-9c0-3.9-1.1-6.9-3.5-9.1c-2.4-2.2-6-3.3-10.7-3.3h-11.4V187.7z"/>
			</g>
			<g>
				<path class="st0" d="M1340.6,240c-14.2,0-25.8-4.6-34.8-13.7c-9-9.1-13.5-20.7-13.5-34.9c0-14.1,4.5-25.8,13.5-34.9
					c9-9.1,20.6-13.7,34.8-13.7c14,0,25.5,4.5,34.6,13.5c9.1,9,13.6,20.7,13.6,35c0,14.3-4.5,26-13.6,35
					C1366.1,235.5,1354.5,240,1340.6,240z M1340.6,222.4c8.2,0,15-2.9,20.4-8.8c5.4-5.9,8.1-13.3,8.1-22.1c0-8.9-2.7-16.3-8.1-22.1
					c-5.4-5.9-12.2-8.8-20.4-8.8c-8.5,0-15.4,3-20.7,8.9c-5.4,6-8.1,13.3-8.1,22c0,8.7,2.7,16.1,8.1,22
					C1325.2,219.4,1332.1,222.4,1340.6,222.4z"/>
				<path class="st0" d="M1340.6,242.2c-14.8,0-27-4.8-36.4-14.3c-9.4-9.5-14.1-21.7-14.1-36.4c0-14.7,4.7-26.9,14.1-36.4
					c9.4-9.5,21.6-14.3,36.4-14.3c14.5,0,26.6,4.8,36.1,14.2c9.5,9.4,14.2,21.7,14.2,36.6c0,14.9-4.8,27.2-14.2,36.6
					C1367.2,237.4,1355.1,242.2,1340.6,242.2z M1340.6,145.1c-13.6,0-24.8,4.4-33.3,13c-8.5,8.7-12.9,19.9-12.9,33.4
					c0,13.5,4.3,24.7,12.8,33.4c8.5,8.6,19.7,13,33.3,13c13.3,0,24.4-4.3,33-12.9c8.6-8.6,13-19.8,13-33.5c0-13.7-4.4-24.9-13-33.5
					C1365,149.4,1353.9,145.1,1340.6,145.1z M1340.6,224.6c-9.1,0-16.6-3.2-22.4-9.7c-5.7-6.3-8.6-14.2-8.6-23.5
					c0-9.2,2.9-17.1,8.6-23.5c5.8-6.4,13.3-9.7,22.4-9.7c8.8,0,16.2,3.2,22,9.5c5.8,6.3,8.7,14.2,8.7,23.6c0,9.4-2.9,17.4-8.7,23.6
					C1356.8,221.4,1349.3,224.6,1340.6,224.6z M1340.6,162.7c-7.9,0-14.1,2.7-19.1,8.2c-5.1,5.6-7.5,12.3-7.5,20.6
					c0,8.2,2.5,15,7.5,20.6c5,5.5,11.3,8.2,19.1,8.2c7.6,0,13.8-2.7,18.8-8.1c5-5.4,7.6-12.4,7.6-20.7c0-8.3-2.5-15.2-7.6-20.7
					C1354.3,165.3,1348.2,162.7,1340.6,162.7z"/>
			</g>
		</g>
		<g>
			<g>
				<path class="st1" d="M932,484.8V319.1h-55v-35.4h151v35.4h-55.8v165.8H932z"/>
				<path class="st1" d="M974.9,487.5h-45.6V321.7h-55V281h156.4v40.8h-55.8V487.5z M934.7,482.1h34.9V316.4h55.8v-30.1H879.7v30.1
					h55V482.1z"/>
			</g>
			<g>
				<path class="st1" d="M1077.4,484.8V283.6H1206v35.4h-89.3v48.5h71.4v34.9h-71.4v47h95.2v35.4H1077.4z"/>
				<path class="st1" d="M1214.6,487.5h-139.9V281h134v40.8h-89.3v43.1h71.4V405h-71.4v41.7h95.2V487.5z M1080,482.1h129.2v-30.1
					h-95.2v-52.4h71.4v-29.5h-71.4v-53.8h89.3v-30.1H1080V482.1z"/>
			</g>
			<g>
				<path class="st1" d="M1266.6,484.8V283.6h40.5v165.8h89v35.4H1266.6z"/>
				<path class="st1" d="M1398.8,487.5H1264V281h45.9v165.8h89V487.5z M1269.3,482.1h124.1v-30.1h-89V286.3h-35.2V482.1z"/>
			</g>
			<g>
				<path class="st1" d="M1480.3,484.8l-74.8-201.2h43.1l49.3,143.9h0.6l49-143.9h42.5l-74.5,201.2H1480.3z"/>
				<path class="st1" d="M1517.3,487.5h-38.8L1401.6,281h48.8l47.7,139.2l47.4-139.2h48.2L1517.3,487.5z M1482.1,482.1h31.4
					l72.5-195.8h-36.8l-49,143.9h-4.4l-49.3-143.9h-37.3L1482.1,482.1z"/>
			</g>
			<g>
				<path class="st1" d="M1637.8,484.8V283.6h40.5v201.2H1637.8z"/>
				<path class="st1" d="M1681,487.5h-45.9V281h45.9V487.5z M1640.5,482.1h35.2V286.3h-35.2V482.1z"/>
			</g>
			<g>
				<path class="st1" d="M1743.2,484.8V283.6h76.2c23.2,0,40.7,6.1,52.4,18.3c11.7,12.2,17.6,28.4,17.6,48.6
					c0,31.4-14,51.6-41.9,60.6l50.4,73.7h-47.3l-45.1-68.9h-23v68.9H1743.2z M1782.6,380.8h28.9c11.9,0,21-2.8,27.3-8.4
					c6.3-5.6,9.5-13.1,9.5-22.5c0-9.4-3-17-9.1-22.5c-6-5.6-14.7-8.4-26.1-8.4h-30.6V380.8z"/>
				<path class="st1" d="M1903,487.5h-53.8l-45.1-68.9h-18.8v68.9h-44.7V281h78.9c23.9,0,42.2,6.4,54.3,19.1
					c12.2,12.6,18.3,29.6,18.3,50.4c0,31.2-13.6,52.1-40.4,62L1903,487.5z M1852.1,482.1h40.8l-49.6-72.4l3.4-1.1
					c27-8.7,40.1-27.8,40.1-58.1c0-19.4-5.7-35.1-16.8-46.7c-11.1-11.6-28.1-17.5-50.5-17.5h-73.5v195.8h34v-68.9h27.1L1852.1,482.1
					z M1811.5,383.5h-31.6v-67.1h33.3c12,0,21.3,3.1,27.9,9.1c6.6,6.1,9.9,14.3,9.9,24.5c0,10.2-3.5,18.5-10.4,24.5
					C1833.8,380.5,1824,383.5,1811.5,383.5z M1785.3,378.2h26.2c11.2,0,19.8-2.6,25.6-7.7c5.8-5.1,8.6-11.8,8.6-20.5
					c0-8.7-2.7-15.5-8.2-20.6c-5.5-5.1-13.7-7.7-24.3-7.7h-27.9V378.2z"/>
			</g>
		</g>
		<g>
			<g>
				<path class="st1" d="M876,571.1v-41.2h8.3v41.2H876z"/>
				<path class="st1" d="M884.8,571.6h-9.3v-42.2h9.3V571.6z M876.5,570.6h7.3v-40.2h-7.3V570.6z"/>
			</g>
			<g>
				<path class="st1" d="M893.5,571.1v-41.2h8l18.5,27.8h0.1v-27.8h8.1v41.2H920l-18.3-27.2h-0.1v27.2H893.5z"/>
				<path class="st1" d="M928.7,571.6h-8.9l-0.1-0.2l-17.5-26v26.2H893v-42.2h8.8l17.8,26.8v-26.8h9.1V571.6z M920.3,570.6h7.4
					v-40.2h-7.1v27.8h-0.8l-0.3-0.2l-18.4-27.6H894v40.2h7.1v-27.2h0.8l0.3,0.2L920.3,570.6z"/>
			</g>
			<g>
				<path class="st1" d="M956.5,571.5c-6.1,0-11.1-1.9-15.1-5.6c-3.9-3.7-5.9-8.9-5.9-15.3c0-6.2,1.9-11.3,5.6-15.2
					c3.7-4,8.7-5.9,15.1-5.9c3.1,0,6,0.6,8.9,1.8c2.9,1.2,5.4,2.9,7.4,5.2l-5.7,5c-2.9-2.9-6.4-4.3-10.6-4.3c-3.5,0-6.4,1.2-8.7,3.7
					c-2.3,2.4-3.5,5.7-3.5,9.8c0,3.9,1.1,7.1,3.4,9.7c2.3,2.6,5.3,3.8,9.1,3.8c3,0,5.7-0.8,8.3-2.4v-6h-9.2v-7h17.2v17.7
					c-1.9,1.5-4.4,2.8-7.3,3.7C962.6,571,959.6,571.5,956.5,571.5z"/>
				<path class="st1" d="M956.5,572c-6.2,0-11.4-1.9-15.4-5.8c-4-3.8-6.1-9.1-6.1-15.7c0-6.3,1.9-11.5,5.7-15.6
					c3.8-4,9-6.1,15.4-6.1c3.1,0,6.2,0.6,9.1,1.8c3,1.2,5.5,3,7.6,5.3l0.3,0.4l-6.5,5.6l-0.3-0.3c-2.8-2.8-6.2-4.1-10.3-4.1
					c-3.3,0-6.1,1.2-8.3,3.5c-2.2,2.3-3.3,5.5-3.3,9.5c0,3.8,1.1,6.9,3.3,9.4c2.2,2.4,5.1,3.7,8.7,3.7c2.8,0,5.4-0.7,7.8-2.2v-5.3
					h-9.2v-8h18.2v18.5l-0.2,0.2c-2,1.6-4.5,2.9-7.4,3.8C962.7,571.5,959.6,572,956.5,572z M956.1,529.9c-6.1,0-11.1,1.9-14.7,5.8
					c-3.6,3.8-5.5,8.9-5.5,14.9c0,6.3,1.9,11.3,5.8,14.9c3.8,3.6,8.8,5.5,14.7,5.5c3,0,6-0.5,8.8-1.4c2.7-0.9,5.1-2,6.9-3.5v-17
					h-16.2v6h9.2v6.8l-0.2,0.1c-2.6,1.6-5.5,2.5-8.6,2.5c-3.9,0-7.1-1.3-9.5-4c-2.3-2.6-3.5-6-3.5-10c0-4.2,1.2-7.6,3.6-10.1
					c2.4-2.5,5.4-3.8,9-3.8c4.2,0,7.7,1.4,10.6,4.1l5-4.3c-1.9-2-4.2-3.6-6.9-4.7C962,530.5,959.1,529.9,956.1,529.9z"/>
			</g>
			<g>
				<path class="st1" d="M980.7,571.1v-41.2h26.3v7.2h-18.3v9.9h14.6v7.1h-14.6v9.6h19.5v7.2H980.7z"/>
				<path class="st1" d="M1008.7,571.6h-28.5v-42.2h27.3v8.3h-18.3v8.9h14.6v8.1h-14.6v8.6h19.5V571.6z M981.2,570.6h26.5v-6.2
					h-19.5v-10.6h14.6v-6.1h-14.6v-10.9h18.3v-6.3h-25.3V570.6z"/>
			</g>
			<g>
				<path class="st1" d="M1015.3,571.1v-41.2h8l18.5,27.8h0.1v-27.8h8.1v41.2h-8.2l-18.3-27.2h-0.1v27.2H1015.3z"/>
				<path class="st1" d="M1050.5,571.6h-8.9l-0.1-0.2l-17.5-26v26.2h-9.1v-42.2h8.8l17.8,26.8v-26.8h9.1V571.6z M1042.1,570.6h7.4
					v-40.2h-7.1v27.8h-0.8l-0.3-0.2l-18.4-27.6h-7.2v40.2h7.1v-27.2h0.8l0.3,0.2L1042.1,570.6z"/>
			</g>
			<g>
				<path class="st1" d="M1059.3,571.1v-41.2h8.3v41.2H1059.3z"/>
				<path class="st1" d="M1068,571.6h-9.3v-42.2h9.3V571.6z M1059.8,570.6h7.3v-40.2h-7.3V570.6z"/>
			</g>
			<g>
				<path class="st1" d="M1076.8,571.1v-41.2h26.3v7.2h-18.3v9.9h14.6v7.1h-14.6v9.6h19.5v7.2H1076.8z"/>
				<path class="st1" d="M1104.8,571.6h-28.5v-42.2h27.3v8.3h-18.3v8.9h14.6v8.1h-14.6v8.6h19.5V571.6z M1077.3,570.6h26.5v-6.2
					h-19.5v-10.6h14.6v-6.1h-14.6v-10.9h18.3v-6.3h-25.3V570.6z"/>
			</g>
			<g>
				<path class="st1" d="M1111.5,571.1v-41.2h15.6c4.8,0,8.3,1.2,10.7,3.7c2.4,2.5,3.6,5.8,3.6,9.9c0,6.4-2.9,10.6-8.6,12.4
					l10.3,15.1h-9.7l-9.2-14.1h-4.7v14.1H1111.5z M1119.5,549.8h5.9c2.4,0,4.3-0.6,5.6-1.7c1.3-1.1,1.9-2.7,1.9-4.6
					c0-1.9-0.6-3.5-1.9-4.6c-1.2-1.1-3-1.7-5.3-1.7h-6.3V549.8z"/>
				<path class="st1" d="M1144.1,571.6h-10.9l-9.2-14.1h-3.9v14.1h-9.1v-42.2h16.1c4.9,0,8.6,1.3,11.1,3.9c2.5,2.6,3.7,6,3.7,10.3
					c0,6.4-2.8,10.7-8.3,12.7L1144.1,571.6z M1133.7,570.6h8.5l-10.2-14.8l0.6-0.2c5.5-1.8,8.2-5.7,8.2-11.9c0-4-1.2-7.2-3.5-9.6
					c-2.3-2.4-5.8-3.6-10.4-3.6H1112v40.2h7.1v-14.1h5.5L1133.7,570.6z M1125.4,550.3h-6.4v-13.6h6.8c2.4,0,4.3,0.6,5.7,1.8
					c1.3,1.2,2,2.9,2,5c0,2.1-0.7,3.8-2.1,5C1130,549.7,1128,550.3,1125.4,550.3z M1120,549.3h5.4c2.3,0,4.1-0.5,5.3-1.6
					c1.2-1.1,1.8-2.4,1.8-4.2c0-1.8-0.6-3.2-1.7-4.2c-1.1-1-2.8-1.6-5-1.6h-5.8V549.3z"/>
			</g>
			<g>
				<path class="st1" d="M1149.7,571.1v-41.2h8.3v41.2H1149.7z M1150,526.5l6.4-7.8h8.1l-7.3,7.8H1150z"/>
				<path class="st1" d="M1158.5,571.6h-9.3v-42.2h9.3V571.6z M1150.2,570.6h7.3v-40.2h-7.3V570.6z M1157.4,527h-8.5l7.3-8.8h9.4
					L1157.4,527z M1151.1,526h5.9l6.4-6.8h-6.7L1151.1,526z"/>
			</g>
			<g>
				<path class="st1" d="M1163.6,571.1l15.3-41.2h7.9l15.3,41.2h-8.5l-2.8-8.2H1175l-2.8,8.2H1163.6z M1177.3,555.9h11.1l-5.5-16.1
					h-0.1L1177.3,555.9z"/>
				<path class="st1" d="M1202.8,571.6h-9.6l-2.8-8.2h-15.1l-2.8,8.2h-9.6l15.6-42.2h8.6L1202.8,571.6z M1193.9,570.6h7.5
					l-14.9-40.2h-7.2l-14.9,40.2h7.4l2.8-8.2h16.5L1193.9,570.6z M1189.1,556.4h-12.5l5.9-17.1h0.7l0.2,0.3L1189.1,556.4z
					 M1178,555.4h9.7l-4.9-14.2L1178,555.4z"/>
			</g>
			<g>
				<path class="st1" d="M1241.7,571.5c-6,0-11-1.8-15-5.5c-4-3.7-6-8.8-6-15.3c0-6.1,1.9-11.2,5.6-15.2c3.7-4,8.8-6,15.3-6
					c3.1,0,6,0.7,8.9,2c2.9,1.3,5.4,3.3,7.5,5.9l-6,5c-2.9-3.5-6.3-5.2-10.4-5.2c-3.6,0-6.5,1.2-8.8,3.7c-2.3,2.5-3.5,5.7-3.5,9.8
					c0,3.8,1.2,7,3.5,9.5c2.3,2.5,5.3,3.7,9,3.7c4.1,0,7.6-1.7,10.4-5.2l6,5.2C1253.8,568.9,1248.4,571.5,1241.7,571.5z"/>
				<path class="st1" d="M1241.7,572c-6.1,0-11.3-1.9-15.3-5.7c-4.1-3.8-6.2-9.1-6.2-15.7c0-6.2,1.9-11.4,5.7-15.5
					c3.8-4.1,9.1-6.2,15.7-6.2c3.1,0,6.2,0.7,9.1,2c2.9,1.4,5.5,3.4,7.7,6.1l0.3,0.4l-6.8,5.7l-0.3-0.4c-2.7-3.3-6.1-5-10-5
					c-3.4,0-6.3,1.2-8.5,3.5c-2.2,2.3-3.4,5.5-3.4,9.4c0,3.7,1.1,6.7,3.3,9.1c2.2,2.4,5.1,3.6,8.6,3.6c3.9,0,7.3-1.7,10-5l0.3-0.4
					l6.7,5.8l-0.3,0.4C1254.1,569.3,1248.5,572,1241.7,572z M1241.5,529.9c-6.3,0-11.3,2-14.9,5.9c-3.6,3.9-5.5,8.9-5.5,14.9
					c0,6.4,2,11.4,5.8,15c3.9,3.6,8.8,5.4,14.7,5.4c6.4,0,11.6-2.4,15.7-7.2l-5.2-4.5c-2.9,3.3-6.4,5-10.4,5c-3.8,0-6.9-1.3-9.4-3.9
					c-2.4-2.6-3.6-5.9-3.6-9.8c0-4.2,1.2-7.6,3.6-10.1c2.4-2.5,5.5-3.8,9.2-3.8c4,0,7.6,1.7,10.4,5l5.3-4.4c-2-2.4-4.4-4.2-7-5.4
					C1247.4,530.5,1244.5,529.9,1241.5,529.9z"/>
			</g>
			<g>
				<path class="st1" d="M1264.4,571.1v-41.2h8.3v41.2H1264.4z"/>
				<path class="st1" d="M1273.2,571.6h-9.3v-42.2h9.3V571.6z M1264.9,570.6h7.3v-40.2h-7.3V570.6z"/>
			</g>
			<g>
				<path class="st1" d="M1294,571.1l-15.3-41.2h8.8l10.1,29.5h0.1l10-29.5h8.7l-15.3,41.2H1294z"/>
				<path class="st1" d="M1301.6,571.6h-7.9l-15.7-42.2h9.9l9.8,28.6l9.7-28.6h9.8L1301.6,571.6z M1294.4,570.6h6.5l14.9-40.2h-7.6
					l-10,29.5h-0.7l-0.2-0.3l-10-29.1h-7.7L1294.4,570.6z"/>
			</g>
			<g>
				<path class="st1" d="M1322.2,571.1v-41.2h8.3v41.2H1322.2z"/>
				<path class="st1" d="M1331,571.6h-9.3v-42.2h9.3V571.6z M1322.7,570.6h7.3v-40.2h-7.3V570.6z"/>
			</g>
			<g>
				<path class="st1" d="M1339.7,571.1v-41.2h8.3v33.9h18.2v7.2H1339.7z"/>
				<path class="st1" d="M1366.7,571.6h-27.5v-42.2h9.3v33.9h18.2V571.6z M1340.2,570.6h25.5v-6.2h-18.2v-33.9h-7.3V570.6z"/>
			</g>
			<g>
				<path class="st1" d="M1397,571.1V553l-13.6-23.1h9.3l8.4,15h0.1l8.2-15h9.5l-13.7,23.1v18.1H1397z"/>
				<path class="st1" d="M1405.7,571.6h-9.2v-18.5l-14-23.7h10.5l8.2,14.5l8-14.5h10.6l-14.1,23.7V571.6z M1397.5,570.6h7.2v-17.7
					l13.3-22.4h-8.3l-8.2,15h-0.6l-0.3-0.3l-8.3-14.7h-8.2l13.3,22.4V570.6z"/>
			</g>
			<g>
				<path class="st1" d="M1458.1,571.5c-6,0-11-1.8-15-5.5c-4-3.7-6-8.8-6-15.3c0-6.1,1.9-11.2,5.6-15.2c3.7-4,8.8-6,15.3-6
					c3.1,0,6,0.7,8.9,2c2.9,1.3,5.4,3.3,7.5,5.9l-6,5c-2.9-3.5-6.3-5.2-10.4-5.2c-3.6,0-6.5,1.2-8.8,3.7c-2.3,2.5-3.5,5.7-3.5,9.8
					c0,3.8,1.2,7,3.5,9.5c2.3,2.5,5.3,3.7,9,3.7c4.1,0,7.6-1.7,10.4-5.2l6,5.2C1470.3,568.9,1464.8,571.5,1458.1,571.5z"/>
				<path class="st1" d="M1458.1,572c-6.1,0-11.3-1.9-15.3-5.7c-4.1-3.8-6.2-9.1-6.2-15.7c0-6.2,1.9-11.4,5.7-15.5
					c3.8-4.1,9.1-6.2,15.7-6.2c3.1,0,6.2,0.7,9.1,2c2.9,1.4,5.5,3.4,7.7,6.1l0.3,0.4l-6.8,5.7l-0.3-0.4c-2.7-3.3-6.1-5-10-5
					c-3.4,0-6.3,1.2-8.5,3.5c-2.2,2.3-3.4,5.5-3.4,9.4c0,3.7,1.1,6.7,3.3,9.1c2.2,2.4,5.1,3.6,8.6,3.6c3.9,0,7.3-1.7,10-5l0.3-0.4
					l6.7,5.8l-0.3,0.4C1470.6,569.3,1465,572,1458.1,572z M1458,529.9c-6.3,0-11.3,2-14.9,5.9c-3.6,3.9-5.5,8.9-5.5,14.9
					c0,6.4,2,11.4,5.8,15c3.9,3.6,8.8,5.4,14.7,5.4c6.4,0,11.6-2.4,15.7-7.2l-5.2-4.5c-2.9,3.3-6.4,5-10.4,5c-3.8,0-6.9-1.3-9.4-3.9
					c-2.4-2.6-3.6-5.9-3.6-9.8c0-4.2,1.2-7.6,3.6-10.1c2.4-2.5,5.5-3.8,9.2-3.8c4,0,7.6,1.7,10.4,5l5.3-4.4c-2-2.4-4.4-4.2-7-5.4
					C1463.9,530.5,1460.9,529.9,1458,529.9z"/>
			</g>
			<g>
				<path class="st1" d="M1500,571.6c-6.2,0-11.2-2-15.1-5.9c-3.9-4-5.9-9-5.9-15.2c0-6.1,2-11.2,5.9-15.2c3.9-4,9-5.9,15.1-5.9
					c6.1,0,11.1,2,15,5.9c3.9,3.9,5.9,9,5.9,15.2c0,6.2-2,11.3-5.9,15.2C1511,569.6,1506,571.6,1500,571.6z M1500,564
					c3.6,0,6.5-1.3,8.9-3.8c2.4-2.6,3.5-5.8,3.5-9.6c0-3.9-1.2-7.1-3.5-9.6c-2.4-2.6-5.3-3.8-8.9-3.8c-3.7,0-6.7,1.3-9,3.9
					c-2.3,2.6-3.5,5.8-3.5,9.6c0,3.8,1.2,7,3.5,9.6C1493.3,562.7,1496.3,564,1500,564z"/>
				<path class="st1" d="M1500,572.1c-6.3,0-11.5-2-15.5-6.1c-4-4-6-9.3-6-15.5c0-6.3,2-11.5,6-15.5c4-4,9.2-6.1,15.5-6.1
					c6.2,0,11.4,2,15.4,6c4,4,6.1,9.2,6.1,15.6c0,6.3-2,11.6-6.1,15.6C1511.3,570.1,1506.2,572.1,1500,572.1z M1500,529.9
					c-6,0-11,2-14.8,5.8c-3.8,3.8-5.7,8.8-5.7,14.8c0,6,1.9,11,5.7,14.8c3.8,3.8,8.8,5.8,14.8,5.8c5.9,0,10.8-1.9,14.7-5.7
					c3.8-3.8,5.8-8.8,5.8-14.9c0-6.1-1.9-11.1-5.8-14.9C1510.8,531.8,1505.9,529.9,1500,529.9z M1500,564.5c-3.8,0-7-1.4-9.4-4.1
					c-2.4-2.7-3.6-6-3.6-9.9c0-3.9,1.2-7.2,3.6-9.9c2.4-2.7,5.6-4.1,9.4-4.1c3.7,0,6.8,1.3,9.2,4c2.4,2.6,3.7,6,3.7,10
					c0,4-1.2,7.3-3.7,10C1506.8,563.1,1503.7,564.5,1500,564.5z M1500,537.5c-3.5,0-6.4,1.3-8.6,3.7c-2.2,2.5-3.4,5.6-3.4,9.2
					c0,3.6,1.1,6.8,3.4,9.2c2.2,2.5,5.1,3.7,8.6,3.7c3.4,0,6.3-1.2,8.5-3.7c2.3-2.4,3.4-5.6,3.4-9.3c0-3.7-1.1-6.8-3.4-9.3
					C1506.2,538.8,1503.4,537.5,1500,537.5z"/>
			</g>
			<g>
				<path class="st1" d="M1528.2,571.1v-41.2h8l18.5,27.8h0.1v-27.8h8.1v41.2h-8.2l-18.3-27.2h-0.1v27.2H1528.2z"/>
				<path class="st1" d="M1563.3,571.6h-8.9l-0.1-0.2l-17.5-26v26.2h-9.1v-42.2h8.8l17.8,26.8v-26.8h9.1V571.6z M1554.9,570.6h7.4
					v-40.2h-7.1v27.8h-0.8l-0.3-0.2l-18.4-27.6h-7.2v40.2h7.1v-27.2h0.8l0.3,0.2L1554.9,570.6z"/>
			</g>
			<g>
				<path class="st1" d="M1584.2,571.6c-5.8,0-10.8-2.2-15-6.6l4.9-6c1.5,1.7,3.1,2.9,5,3.8c1.8,0.9,3.6,1.3,5.3,1.3
					c1.9,0,3.3-0.4,4.4-1.2c1-0.8,1.5-1.8,1.5-3.2c0-1.4-0.5-2.5-1.5-3.3c-1-0.8-2.9-1.6-5.6-2.6c-1.5-0.5-2.7-1-3.7-1.4
					c-1-0.4-2.1-1-3.3-1.8c-1.2-0.7-2.1-1.5-2.9-2.3c-0.7-0.8-1.3-1.9-1.8-3.1c-0.5-1.3-0.7-2.6-0.7-4.1c0-3.3,1.3-6.1,3.8-8.3
					c2.6-2.3,5.7-3.4,9.4-3.5c5,0,9.7,1.7,13.9,5.2l-4.8,6.1c-3.3-2.7-6.3-4.1-9-4.1c-1.5,0-2.7,0.4-3.6,1.1c-0.9,0.7-1.4,1.7-1.4,3
					c0,1.2,0.5,2.1,1.5,2.8s2.8,1.6,5.5,2.6c4.3,1.7,7,2.9,8.4,3.8c3,2,4.5,4.9,4.5,8.8c0,2.9-0.8,5.3-2.3,7.3
					c-1.5,2-3.4,3.4-5.5,4.2C1588.9,571.2,1586.6,571.6,1584.2,571.6z"/>
				<path class="st1" d="M1584.2,572.1c-5.9,0-11-2.3-15.4-6.7l-0.3-0.3l5.6-6.8l0.4,0.4c1.4,1.6,3,2.9,4.8,3.7
					c1.8,0.9,3.5,1.3,5.1,1.3c1.8,0,3.1-0.4,4-1.1c0.9-0.7,1.3-1.6,1.3-2.8c0-1.3-0.4-2.2-1.3-2.9c-1-0.7-2.8-1.6-5.5-2.5
					c-1.5-0.5-2.8-1-3.8-1.4c-1-0.4-2.2-1.1-3.4-1.8c-1.2-0.8-2.2-1.6-3-2.4c-0.8-0.9-1.4-2-1.9-3.3c-0.5-1.3-0.8-2.8-0.8-4.3
					c0-3.4,1.3-6.3,4-8.7c2.6-2.3,5.9-3.5,9.7-3.6c5.1,0,9.9,1.8,14.2,5.3l0.4,0.3l-5.4,6.9l-0.4-0.3c-3.2-2.6-6.1-3.9-8.7-3.9
					c-1.3,0-2.4,0.3-3.3,1c-0.8,0.6-1.2,1.5-1.2,2.6c0,1,0.4,1.8,1.3,2.4c1,0.7,2.8,1.5,5.4,2.6c4.3,1.7,7.1,3,8.4,3.9
					c3.1,2.1,4.7,5.2,4.7,9.2c0,3-0.8,5.5-2.4,7.6c-1.6,2.1-3.5,3.5-5.7,4.4C1589,571.7,1586.7,572.1,1584.2,572.1z M1569.9,565
					c4.1,4,8.9,6.1,14.3,6.1c2.3,0,4.5-0.4,6.6-1.2c2-0.8,3.8-2.2,5.3-4.1c1.5-1.9,2.2-4.2,2.2-7c0-3.7-1.4-6.4-4.2-8.3
					c-1.3-0.9-4.1-2.1-8.3-3.8c-2.7-1.1-4.6-1.9-5.6-2.7c-1.1-0.8-1.7-1.9-1.7-3.3c0-1.4,0.6-2.6,1.6-3.4c1-0.8,2.3-1.2,3.9-1.2
					c2.7,0,5.7,1.3,8.9,3.9l4.1-5.4c-4-3.2-8.5-4.8-13.2-4.8c-3.6,0-6.6,1.2-9.1,3.3c-2.4,2.2-3.7,4.8-3.7,7.9c0,1.4,0.2,2.8,0.7,4
					c0.5,1.2,1,2.2,1.7,3c0.7,0.8,1.6,1.5,2.8,2.3c1.2,0.7,2.2,1.3,3.2,1.7c1,0.4,2.2,0.9,3.7,1.4c2.8,1,4.7,1.8,5.7,2.6
					c1.2,0.9,1.7,2.1,1.7,3.7c0,1.5-0.6,2.7-1.7,3.6c-1.1,0.9-2.7,1.3-4.7,1.3c-1.8,0-3.6-0.5-5.5-1.4c-1.7-0.8-3.3-2-4.7-3.5
					L1569.9,565z"/>
			</g>
			<g>
				<path class="st1" d="M1613.4,571.1v-33.9h-11.3v-7.2h30.9v7.2h-11.4v33.9H1613.4z"/>
				<path class="st1" d="M1622.1,571.6h-9.2v-33.9h-11.3v-8.3h31.9v8.3h-11.4V571.6z M1613.9,570.6h7.2v-33.9h11.4v-6.3h-29.9v6.3
					h11.3V570.6z"/>
			</g>
			<g>
				<path class="st1" d="M1639.1,571.1v-41.2h15.6c4.8,0,8.3,1.2,10.7,3.7c2.4,2.5,3.6,5.8,3.6,9.9c0,6.4-2.9,10.6-8.6,12.4
					l10.3,15.1h-9.7l-9.2-14.1h-4.7v14.1H1639.1z M1647.2,549.8h5.9c2.4,0,4.3-0.6,5.6-1.7c1.3-1.1,1.9-2.7,1.9-4.6
					c0-1.9-0.6-3.5-1.9-4.6c-1.2-1.1-3-1.7-5.3-1.7h-6.3V549.8z"/>
				<path class="st1" d="M1671.7,571.6h-10.9l-9.2-14.1h-3.9v14.1h-9.1v-42.2h16.1c4.9,0,8.6,1.3,11.1,3.9c2.5,2.6,3.7,6,3.7,10.3
					c0,6.4-2.8,10.7-8.3,12.7L1671.7,571.6z M1661.4,570.6h8.5l-10.2-14.8l0.6-0.2c5.5-1.8,8.2-5.7,8.2-11.9c0-4-1.2-7.2-3.5-9.6
					c-2.3-2.4-5.8-3.6-10.4-3.6h-15.1v40.2h7.1v-14.1h5.5L1661.4,570.6z M1653.1,550.3h-6.4v-13.6h6.8c2.4,0,4.3,0.6,5.7,1.8
					c1.3,1.2,2,2.9,2,5c0,2.1-0.7,3.8-2.1,5C1657.6,549.7,1655.6,550.3,1653.1,550.3z M1647.7,549.3h5.4c2.3,0,4.1-0.5,5.3-1.6
					c1.2-1,1.8-2.4,1.8-4.2c0-1.8-0.6-3.2-1.7-4.2c-1.1-1-2.8-1.6-5-1.6h-5.8V549.3z"/>
			</g>
			<g>
				<path class="st1" d="M1692.2,571.6c-5.1,0-9.1-1.5-12.1-4.6c-3-3.1-4.5-7.4-4.5-12.9v-24.1h8.2v23.6c0,3.1,0.7,5.6,2.2,7.5
					c1.5,2,3.6,2.9,6.2,2.9c2.6,0,4.6-0.9,6.2-2.8c1.6-1.9,2.4-4.4,2.4-7.6v-23.6h8.2V554c0,5.4-1.5,9.7-4.4,12.8
					C1701.5,570,1697.4,571.6,1692.2,571.6z"/>
				<path class="st1" d="M1692.2,572.1c-5.2,0-9.4-1.6-12.5-4.8c-3.1-3.2-4.7-7.6-4.7-13.3v-24.6h9.2v24.1c0,2.9,0.7,5.4,2.1,7.2
					c1.4,1.8,3.3,2.7,5.8,2.7c2.4,0,4.3-0.9,5.8-2.6c1.5-1.8,2.3-4.2,2.3-7.3v-24.1h9.2V554c0,5.5-1.5,10-4.6,13.2
					C1701.8,570.5,1697.6,572.1,1692.2,572.1z M1676,530.4V554c0,5.4,1.5,9.6,4.4,12.6c2.9,3,6.9,4.5,11.8,4.5c5.1,0,9.1-1.5,12-4.6
					c2.9-3,4.3-7.2,4.3-12.5v-23.6h-7.2v23.1c0,3.3-0.8,6-2.5,7.9c-1.7,2-3.9,3-6.6,3c-2.8,0-5.1-1.1-6.6-3.1
					c-1.5-2-2.3-4.7-2.3-7.8v-23.1H1676z"/>
			</g>
			<g>
				<path class="st1" d="M1736.6,571.5c-6,0-11-1.8-15-5.5c-4-3.7-6-8.8-6-15.3c0-6.1,1.9-11.2,5.6-15.2c3.7-4,8.8-6,15.3-6
					c3.1,0,6,0.7,8.9,2c2.9,1.3,5.4,3.3,7.5,5.9l-6,5c-2.9-3.5-6.3-5.2-10.4-5.2c-3.6,0-6.5,1.2-8.8,3.7c-2.3,2.5-3.5,5.7-3.5,9.8
					c0,3.8,1.2,7,3.5,9.5c2.3,2.5,5.3,3.7,9,3.7c4.1,0,7.6-1.7,10.4-5.2l6,5.2C1748.8,568.9,1743.3,571.5,1736.6,571.5z"/>
				<path class="st1" d="M1736.6,572c-6.1,0-11.3-1.9-15.3-5.7c-4.1-3.8-6.2-9.1-6.2-15.7c0-6.2,1.9-11.4,5.7-15.5
					c3.8-4.1,9.1-6.2,15.6-6.2c3.1,0,6.2,0.7,9.1,2c2.9,1.4,5.5,3.4,7.7,6.1l0.3,0.4l-6.8,5.7l-0.3-0.4c-2.8-3.3-6.1-5-10-5
					c-3.4,0-6.3,1.2-8.5,3.5c-2.2,2.3-3.4,5.5-3.4,9.4c0,3.7,1.1,6.7,3.3,9.1c2.2,2.4,5.1,3.6,8.6,3.6c3.9,0,7.3-1.7,10-5l0.3-0.4
					l6.7,5.8l-0.3,0.4C1749.1,569.3,1743.5,572,1736.6,572z M1736.5,529.9c-6.3,0-11.3,2-14.9,5.9c-3.6,3.9-5.5,8.9-5.5,14.9
					c0,6.4,2,11.4,5.8,15c3.9,3.6,8.8,5.4,14.7,5.4c6.4,0,11.6-2.4,15.7-7.2l-5.2-4.5c-2.9,3.3-6.4,5-10.4,5c-3.8,0-6.9-1.3-9.4-3.9
					c-2.4-2.6-3.6-5.9-3.6-9.8c0-4.2,1.2-7.6,3.6-10.1c2.4-2.5,5.5-3.8,9.2-3.8c4,0,7.6,1.7,10.4,5l5.3-4.4c-2-2.4-4.4-4.2-7-5.4
					C1742.4,530.5,1739.5,529.9,1736.5,529.9z"/>
			</g>
			<g>
				<path class="st1" d="M1778.5,571.5c-6,0-11-1.8-15-5.5c-4-3.7-6-8.8-6-15.3c0-6.1,1.9-11.2,5.6-15.2c3.7-4,8.8-6,15.3-6
					c3.1,0,6,0.7,8.9,2c2.9,1.3,5.4,3.3,7.5,5.9l-6,5c-2.9-3.5-6.3-5.2-10.4-5.2c-3.6,0-6.5,1.2-8.8,3.7c-2.3,2.5-3.5,5.7-3.5,9.8
					c0,3.8,1.2,7,3.5,9.5c2.3,2.5,5.3,3.7,9,3.7c4.1,0,7.6-1.7,10.4-5.2l6,5.2C1790.7,568.9,1785.2,571.5,1778.5,571.5z"/>
				<path class="st1" d="M1778.5,572c-6.1,0-11.3-1.9-15.3-5.7c-4.1-3.8-6.2-9.1-6.2-15.7c0-6.2,1.9-11.4,5.7-15.5
					c3.8-4.1,9.1-6.2,15.7-6.2c3.1,0,6.2,0.7,9.1,2c2.9,1.4,5.5,3.4,7.7,6.1l0.3,0.4l-6.8,5.7l-0.3-0.4c-2.8-3.3-6.1-5-10-5
					c-3.4,0-6.3,1.2-8.5,3.5c-2.2,2.3-3.4,5.5-3.4,9.4c0,3.7,1.1,6.7,3.3,9.1c2.2,2.4,5.1,3.6,8.6,3.6c3.9,0,7.3-1.7,10-5l0.3-0.4
					l6.7,5.8l-0.3,0.4C1791,569.3,1785.3,572,1778.5,572z M1778.4,529.9c-6.3,0-11.3,2-14.9,5.9c-3.6,3.9-5.5,8.9-5.5,14.9
					c0,6.4,2,11.4,5.8,15c3.9,3.6,8.8,5.4,14.7,5.4c6.4,0,11.6-2.4,15.7-7.2l-5.2-4.5c-2.9,3.3-6.4,5-10.4,5c-3.8,0-6.9-1.3-9.4-3.9
					c-2.4-2.6-3.6-5.9-3.6-9.8c0-4.2,1.2-7.6,3.6-10.1c2.4-2.5,5.5-3.8,9.2-3.8c4,0,7.6,1.7,10.4,5l5.3-4.4c-2-2.4-4.4-4.2-7-5.4
					C1784.2,530.5,1781.3,529.9,1778.4,529.9z"/>
			</g>
			<g>
				<path class="st1" d="M1801.3,571.1v-41.2h8.3v41.2H1801.3z"/>
				<path class="st1" d="M1810.1,571.6h-9.3v-42.2h9.3V571.6z M1801.8,570.6h7.3v-40.2h-7.3V570.6z"/>
			</g>
			<g>
				<path class="st1" d="M1838.1,571.6c-6.2,0-11.2-2-15.1-5.9c-3.9-4-5.9-9-5.9-15.2c0-6.1,2-11.2,5.9-15.2c3.9-4,9-5.9,15.1-5.9
					c6.1,0,11.1,2,15,5.9c3.9,3.9,5.9,9,5.9,15.2c0,6.2-2,11.3-5.9,15.2C1849.2,569.6,1844.2,571.6,1838.1,571.6z M1838.1,564
					c3.6,0,6.5-1.3,8.9-3.8c2.4-2.6,3.5-5.8,3.5-9.6c0-3.9-1.2-7.1-3.5-9.6c-2.4-2.6-5.3-3.8-8.9-3.8c-3.7,0-6.7,1.3-9,3.9
					c-2.3,2.6-3.5,5.8-3.5,9.6c0,3.8,1.2,7,3.5,9.6C1831.4,562.7,1834.4,564,1838.1,564z M1834,526.5l6.4-7.8h8.1l-7.3,7.8H1834z"/>
				<path class="st1" d="M1838.1,572.1c-6.3,0-11.5-2-15.5-6.1c-4-4-6-9.3-6-15.5c0-6.3,2-11.5,6-15.5c4-4,9.2-6.1,15.5-6.1
					c6.2,0,11.3,2,15.4,6c4,4,6.1,9.2,6.1,15.6c0,6.3-2,11.6-6.1,15.6C1849.4,570.1,1844.3,572.1,1838.1,572.1z M1838.1,529.9
					c-6,0-11,2-14.8,5.8c-3.8,3.8-5.7,8.8-5.7,14.8c0,6,1.9,11,5.7,14.8c3.8,3.8,8.8,5.8,14.8,5.8c5.9,0,10.8-1.9,14.7-5.7
					c3.8-3.8,5.8-8.8,5.8-14.9c0-6.1-1.9-11.1-5.8-14.9C1848.9,531.8,1844,529.9,1838.1,529.9z M1838.1,564.5c-3.8,0-7-1.4-9.4-4.1
					c-2.4-2.7-3.6-6-3.6-9.9c0-3.9,1.2-7.2,3.6-9.9c2.4-2.7,5.6-4.1,9.4-4.1c3.7,0,6.8,1.3,9.2,4c2.4,2.6,3.7,6,3.7,10
					c0,4-1.2,7.3-3.7,10C1844.9,563.1,1841.8,564.5,1838.1,564.5z M1838.1,537.5c-3.5,0-6.4,1.3-8.7,3.7c-2.2,2.5-3.4,5.6-3.4,9.2
					c0,3.6,1.1,6.8,3.4,9.2c2.2,2.5,5.1,3.7,8.6,3.7c3.4,0,6.3-1.2,8.5-3.7c2.3-2.4,3.4-5.6,3.4-9.3c0-3.7-1.1-6.8-3.4-9.3
					C1844.4,538.8,1841.5,537.5,1838.1,537.5z M1841.4,527h-8.5l7.3-8.8h9.5L1841.4,527z M1835.1,526h5.9l6.4-6.8h-6.7L1835.1,526z"
					/>
			</g>
			<g>
				<path class="st1" d="M1866.3,571.1v-41.2h8l18.5,27.8h0.1v-27.8h8.1v41.2h-8.2l-18.3-27.2h-0.1v27.2H1866.3z"/>
				<path class="st1" d="M1901.5,571.6h-8.9l-17.6-26.2v26.2h-9.1v-42.2h8.8l17.8,26.8v-26.8h9.1V571.6z M1893,570.6h7.4v-40.2h-7.1
					v27.8h-0.8l-0.3-0.2l-18.4-27.6h-7.2v40.2h7.1v-27.2h0.8l0.3,0.2L1893,570.6z"/>
			</g>
		</g>
	</g>
	<g>
		<g>
			<polygon class="st0" points="161.5,577.1 360.9,364.7 452.9,455.2 663,234.5 623.7,197.4 802.7,144.2 761.2,331.5 719.5,291.4 
				453.6,564.5 356.3,467.5 			"/>
		</g>
		<g>
			<polygon class="st1" points="553.5,327.6 464.8,291.5 464.8,420.4 			"/>
		</g>
		<g>
			<polygon class="st2" points="426.1,310.7 426.1,407.7 452.2,433.4 464.8,420.4 464.8,291.5 464.8,291.5 			"/>
		</g>
		<g>
			<polygon class="st1" points="564.9,314.9 586,292.9 586,276.7 464.8,221.3 464.8,274.7 			"/>
		</g>
		<g>
			<polygon class="st2" points="426.1,242.4 426.1,295.3 464.8,274.7 464.8,274.7 464.8,221.3 464.8,221.3 			"/>
		</g>
		<g>
			<polygon class="st2" points="368.1,209 413.6,234.5 464.8,205.1 464.8,205.1 464.8,154.6 464.8,154.6 			"/>
		</g>
		<g>
			<polygon class="st1" points="586,260 586,215.8 464.8,154.6 464.8,205.1 			"/>
		</g>
		<g>
			<polygon class="st1" points="586,154.6 464.8,89.1 464.8,139.3 586,200.2 			"/>
		</g>
		<g>
			<polygon class="st2" points="464.8,89.1 329.9,168.4 329.9,215.4 464.8,139.3 464.8,139.3 464.8,89.1 			"/>
		</g>
		<g>
			<polygon class="st1" points="560.3,78.6 464.8,19.9 464.8,74.1 560.3,127.3 			"/>
		</g>
		<g>
			<polygon class="st2" points="464.8,19.9 347.5,92.4 347.5,145.6 464.8,74.1 464.8,74.1 464.8,19.9 			"/>
		</g>
		<g>
			<polygon class="st2" points="257.5,270.9 257.5,453 353,351.4 353,216.9 			"/>
		</g>
		<g>
			<polygon class="st1" points="353,216.9 353,351.4 360.7,343.2 413.6,395.5 413.6,249.4 			"/>
		</g>
		<g>
			<polygon class="st0" points="303.8,229 242.5,263.5 242.4,302.7 225.2,223.3 			"/>
		</g>
		<g>
			<g>
				<path class="st0" d="M147.8,377l94.4-15.8l0.1-27.8l-20-85.9l-42.9-0.8l-0.8-7.7l42,1.3l-4.1-17.6l-61.2-4.4l16.9,60.8
					c-46.1,0-85.5,14.1-118.4,42.2c23.1-34.1,57.6-51.1,101-54.2c-17.4-49.2-24.6-100.5-19.3-154.2
					c-64.3,42.5-95.8,100.8-97.9,173.3L17,293.6l19.1,30.1l125.4,233.4l80.4-87.2l0.1-42.7L179,440l-2.3-8.9l14.4-3l-7.5-24.1
					l8.7-2.6l7.6,24.8l42.1-8.8l0.1-47.4l-56.4,9.7l4.7,16.5l-8.8,2.2l-5.2-17.2l-34.5,5.9L129.1,350l8.6-2.3L147.8,377z M171.4,502
					l36.3-17.2l-40,30.6L82.2,304.8l7.9-3.3L171.4,502z"/>
			</g>
		</g>
		<g>
			<path class="st0" d="M167.6,516.1L81.6,304.5l8.8-3.7l0.2,0.4l81.1,200l39.9-18.9L167.6,516.1z M82.8,305L168,514.6l36-27.6
				l-32.8,15.6L89.9,302.1L82.8,305z"/>
		</g>
		<g>
			<path class="st0" d="M149.6,185.8l3.6,23.4l156,11.7c0-8,0-15.3,0-21.9C254.1,195.9,200.8,191.5,149.6,185.8z"/>
		</g>
		<g>
			<path class="st0" d="M167.6,516.1L81.6,304.5l8.8-3.7l0.2,0.4l81.1,200l39.9-18.9L167.6,516.1z M82.8,305L168,514.6l36-27.6
				l-32.8,15.6L89.9,302.1L82.8,305z"/>
		</g>
		<g>
			<path class="st0" d="M699,450.5l-2.1-0.2l0.6-0.7c0.1-0.1,0.2-0.2,0.3-0.4l0.5-0.5L699,450.5z"/>
		</g>
		<g>
			<path class="st1" d="M763.9,462.6l11.6-14.9l-17.1-22.2l-45.7,2.6c-0.9-10.9-3.9-18.8-9-23.9h56.6l30.7,41.3l1,45.5L763.9,462.6z
				"/>
		</g>
		<g>
			<path class="st0" d="M674,443.7c-8.2,0-14.8-6.7-14.8-14.8c0-8.2,6.7-14.8,14.8-14.8c3.4,0,6.6,1.1,9.2,3.2
				c3.6,2.8,5.6,7.1,5.6,11.6v0.2C688.8,437.1,682.1,443.7,674,443.7z M674,415.1c-7.6,0-13.7,6.2-13.7,13.7
				c0,7.6,6.2,13.7,13.7,13.7c7.5,0,13.6-6.1,13.7-13.5v-0.2c0-4.2-1.9-8.1-5.2-10.8C680.1,416.2,677.1,415.1,674,415.1z"/>
		</g>
		<g>
			<g>
				<path class="st2" d="M763.1,370.6L748.6,381l-49.4,0.2l-5.5-6.8l18.5-28.1l-13-12.1L566.7,469.5l33.4,8.3l19.5-21.5l18.9,22.2
					v33.8l-5.7,14.6c37.9,36.7,92.4,46.9,132.6,23.6l-42.8-38.4l-5.7,3.7v14.7l-36.2-19.3v-43.9c-18,0.8-31.4-5-34.9-23.5l0.5,0.9
					c5.4,9.7,15.8,15.9,27.8,15.9c9.5,0,17.9-4.1,23.8-10.7c0.1-0.1,0.2-0.2,0.3-0.3c4.8-5.6,7.7-12.8,7.7-20.7
					c0-17.1-13.5-31-30.5-31.7c12.4-1.6,22,0.6,28.4,7.1h56.6l30.7,41.3l1,45.5l12.5,12.6C824.8,451,808.2,407.3,763.1,370.6z
					 M682.9,417.7c3.3,2.6,5.4,6.7,5.4,11.2v0.2c-0.1,7.8-6.5,14.1-14.3,14.1c-7.9,0-14.3-6.4-14.3-14.3c0-7.9,6.4-14.3,14.3-14.3
					C677.4,414.6,680.4,415.7,682.9,417.7z"/>
			</g>
		</g>
	</g>
</g>
</svg>
